<svg width="166" height="46" viewBox="0 0 166 46" fill="none" xmlns="http://www.w3.org/2000/svg">
<g clip-path="url(#clip0)">
<path d="M61.9191 31.9362C59.1848 29.3831 57.8176 25.6615 57.8176 20.8582C57.8176 16.0548 59.1848 12.3332 61.9191 9.78007C64.6534 7.22692 68.4903 5.92871 73.4297 5.92871C75.5025 5.92871 77.443 6.14508 79.163 6.53454C80.9271 6.92401 82.3383 7.52984 83.485 8.26549C83.7937 8.48186 83.9701 8.69823 83.9701 8.95787C83.9701 9.0877 83.8819 9.26079 83.7496 9.56371L82.1178 12.2467C81.8973 12.5496 81.7209 12.7227 81.5004 12.7227C81.3681 12.7227 81.1476 12.6361 80.7948 12.463C78.8984 11.4678 76.7374 10.9485 74.2677 10.9485C71.3128 10.9485 68.9754 11.7707 67.2996 13.4151C65.6237 15.0595 64.7857 17.5693 64.7857 20.8582C64.7857 24.1902 65.5796 26.6568 67.1231 28.3012C68.7108 29.9456 70.9159 30.7246 73.7826 30.7246C74.7087 30.7246 75.5907 30.638 76.4728 30.5082C77.3548 30.3784 78.0605 30.162 78.6338 29.9024V23.4113H73.959C73.2533 23.4113 72.8123 23.2815 72.5477 23.0218C72.2831 22.7622 72.1508 22.2862 72.1508 21.6371V20.1225C72.1508 19.5167 72.2831 19.0839 72.5477 18.781C72.8123 18.5214 73.2974 18.3916 73.959 18.3916H83.044C83.8378 18.3916 84.4111 18.5646 84.7199 18.9541C85.0286 19.3003 85.205 19.8629 85.205 20.6418V31.3304C85.205 31.8064 85.1609 32.1526 85.0286 32.4122C84.8963 32.6719 84.6758 32.8883 84.3229 33.1479C81.5445 34.8788 77.884 35.7443 73.3415 35.7443C68.4903 35.7876 64.6534 34.4894 61.9191 31.9362Z" fill="white"/>
<path d="M93.9372 34.6194C92.0849 33.8405 90.6295 32.6721 89.5711 31.1143C88.5126 29.5564 87.9834 27.6524 87.9834 25.3156C87.9834 21.7238 88.9977 18.9976 91.0264 17.0936C93.0551 15.2328 95.9218 14.2808 99.6704 14.2808C103.375 14.2808 106.153 15.1895 108.05 17.007C109.946 18.8245 110.916 21.4209 110.916 24.7963C110.916 25.9647 110.387 26.5705 109.285 26.5705H94.731C94.731 28.0851 95.3043 29.2535 96.451 30.0757C97.5976 30.8979 99.1853 31.3306 101.214 31.3306C102.405 31.3306 103.463 31.2008 104.345 30.9844C105.227 30.7248 106.109 30.4219 106.903 29.9459C107.168 29.816 107.388 29.7295 107.521 29.7295C107.741 29.7295 107.918 29.9026 108.094 30.2055L109.329 32.4557C109.461 32.6721 109.505 32.8019 109.505 32.975C109.505 33.1914 109.329 33.4078 109.02 33.6674C107.873 34.4031 106.594 34.9223 105.183 35.2685C103.772 35.6147 102.096 35.7878 100.244 35.7878C97.8623 35.7878 95.7895 35.3984 93.9372 34.6194ZM104.522 22.9788C104.522 21.594 104.125 20.4689 103.331 19.69C102.537 18.9111 101.302 18.5216 99.6704 18.5216C98.0387 18.5216 96.8038 18.9111 95.9218 19.7333C95.0838 20.5122 94.6428 21.6373 94.6428 22.9788H104.522Z" fill="white"/>
<path d="M115.062 11.4679C114.621 11.0351 114.356 10.4726 114.356 9.82347V8.87145C114.356 8.22234 114.577 7.65979 115.062 7.22705C115.503 6.79431 116.165 6.53467 116.958 6.53467H119.428C120.266 6.53467 120.884 6.75104 121.369 7.22705C121.81 7.65979 122.074 8.22234 122.074 8.87145V9.82347C122.074 10.4726 121.854 11.0351 121.369 11.4679C120.928 11.9006 120.266 12.1603 119.428 12.1603H116.958C116.121 12.117 115.503 11.9006 115.062 11.4679ZM115.106 34.7059C114.842 34.403 114.665 33.9702 114.665 33.3211V16.7905C114.665 16.1414 114.797 15.6654 115.106 15.3625C115.371 15.0596 115.9 14.9298 116.606 14.9298H119.781C120.487 14.9298 121.016 15.1029 121.325 15.4058C121.633 15.7087 121.766 16.1847 121.766 16.7905V33.3211C121.766 33.927 121.633 34.403 121.325 34.7059C121.016 35.0088 120.531 35.1386 119.781 35.1386H116.606C115.9 35.1386 115.371 35.0088 115.106 34.7059Z" fill="white"/>
<path d="M130.63 35.225C128.954 34.8788 127.499 34.3162 126.264 33.6238C125.823 33.3642 125.558 33.1045 125.558 32.8449C125.558 32.7151 125.647 32.542 125.779 32.2823L127.278 29.6859C127.455 29.4263 127.631 29.2532 127.808 29.2532C128.028 29.2532 128.204 29.3397 128.469 29.4695C129.307 29.9456 130.321 30.335 131.556 30.6812C132.791 31.0274 133.938 31.2005 134.952 31.2005C136.231 31.2005 137.113 31.0707 137.686 30.811C138.26 30.5514 138.524 30.0754 138.524 29.4263C138.524 28.9935 138.348 28.6473 137.995 28.3444C137.642 28.0415 137.157 27.7819 136.496 27.6088C135.878 27.3924 134.776 27.0895 133.232 26.6135C130.851 25.9211 129.131 25.0989 128.028 24.2334C126.926 23.3247 126.396 22.0697 126.396 20.4253C126.396 18.4347 127.234 16.9202 128.954 15.8816C130.674 14.843 132.923 14.3237 135.79 14.3237C139.142 14.3237 142.052 15.0161 144.39 16.3576C144.831 16.6172 145.096 16.8769 145.096 17.1365C145.096 17.3096 145.007 17.526 144.831 17.7856L143.376 20.0359C143.199 20.2955 143.023 20.4686 142.846 20.4686C142.714 20.4686 142.494 20.3821 142.229 20.209C141.523 19.8195 140.685 19.4733 139.715 19.2569C138.745 18.9973 137.775 18.8675 136.804 18.8675C135.614 18.8675 134.687 18.9973 134.114 19.2569C133.497 19.5166 133.232 19.9926 133.232 20.685C133.232 21.2475 133.585 21.6803 134.246 22.0265C134.908 22.3294 136.055 22.7188 137.598 23.1516L139.936 23.844C141.391 24.32 142.538 24.796 143.331 25.3153C144.125 25.8345 144.699 26.3971 145.051 27.0895C145.404 27.7819 145.581 28.6041 145.581 29.6426C145.581 31.4169 144.743 32.9314 143.111 34.0998C141.435 35.2682 139.054 35.8308 135.878 35.8308C134.026 35.7875 132.262 35.6144 130.63 35.225Z" fill="white"/>
<path d="M152.866 33.6671C151.542 32.2824 150.837 30.3351 150.837 27.8685V19.8195H148.72C148.014 19.8195 147.573 19.6897 147.353 19.4301C147.132 19.1704 147 18.7377 147 18.0886V16.7038C147 16.0547 147.132 15.622 147.353 15.3191C147.573 15.0594 148.058 14.9296 148.72 14.9296H150.837V13.2419C150.837 12.6361 150.969 12.0303 151.234 11.4244C151.498 10.8186 151.895 10.0829 152.425 9.17419C152.645 8.78473 152.866 8.52508 153.086 8.39526C153.307 8.26544 153.659 8.22217 154.145 8.22217H156.129C156.791 8.22217 157.232 8.35199 157.54 8.65491C157.805 8.91455 157.937 9.39056 157.937 9.99639V14.9729H162.171C162.877 14.9729 163.318 15.1027 163.538 15.3623C163.759 15.622 163.891 16.098 163.891 16.7471V18.1319C163.891 18.781 163.759 19.2137 163.538 19.4733C163.318 19.733 162.833 19.8628 162.171 19.8628H157.937V27.6954C157.937 28.7772 158.158 29.5561 158.555 30.0321C158.952 30.5082 159.613 30.7678 160.583 30.7678C161.157 30.7678 161.642 30.6812 162.039 30.5514C162.436 30.4216 162.877 30.2052 163.362 29.859C163.582 29.7292 163.759 29.6427 163.891 29.6427C164.156 29.6427 164.376 29.8158 164.553 30.1187L166.14 32.7584C166.273 32.9748 166.361 33.1479 166.361 33.3209C166.361 33.5373 166.184 33.7104 165.832 33.9701C164.023 35.1817 161.73 35.7875 158.908 35.7875C156.173 35.7875 154.233 35.0952 152.866 33.6671Z" fill="white"/>
<path d="M1.76406 26.7432L15.1711 13.588C17.7731 10.9915 21.2131 9.60677 24.8735 9.60677C29.5042 9.60677 33.5616 11.857 36.0313 15.3189C36.0754 15.3622 36.1195 15.4055 36.1636 15.4487C37.0898 16.5306 38.4569 17.1797 39.9123 17.1797C42.6025 17.1797 44.8076 15.016 44.8076 12.3763C44.8076 10.8617 43.7933 9.43368 43.7933 9.43368C39.3831 3.50517 32.3268 0 24.8735 0C18.3905 0 12.1721 2.68297 7.71784 7.31326C3.26353 12.0301 1.05843 18.175 1.49945 24.6228C1.54355 25.3584 1.63176 26.0508 1.76406 26.7432Z" fill="#A7FF58"/>
<path d="M46.9244 25.6611C46.2188 24.7957 45.2045 24.2764 44.0578 24.2764H29.9011C29.857 24.2764 29.857 24.2764 29.8129 24.2764C28.7985 24.2764 27.8724 24.6658 27.1667 25.3582C26.4611 26.0506 26.1083 27.0026 26.1524 27.9546C26.1965 29.8154 28.0047 31.4165 30.0334 31.4165H31.0036C31.7974 31.4165 32.459 31.8493 32.7677 32.5849C33.0764 33.2773 32.9 34.0995 32.3708 34.6188L21.1248 45.6536C21.8304 45.7834 22.536 45.87 23.2858 45.9132C34.5318 46.6489 44.8075 39.4655 47.6301 28.7768C47.8506 27.695 47.6301 26.5266 46.9244 25.6611Z" fill="#A7FF58"/>
<path d="M24.7413 12.1165C22.7567 12.1598 20.8603 12.8089 19.2285 13.8908L19.0962 13.9773C17.6849 14.8861 16.3619 15.9679 15.1711 17.1363C10.8491 21.3771 0.308747 31.7196 0.308747 31.7196C-0.352784 32.3687 0.0441344 34.1429 2.16103 33.2774L4.14562 32.5417C6.21842 31.9792 7.76199 32.109 8.90864 33.6236C9.87888 34.8785 9.26146 36.9557 9.26146 36.9557C8.82044 38.427 9.96709 39.4223 11.2019 38.9463L11.9958 38.6434C13.804 37.9942 15.7886 38.7299 16.8029 40.5907C17.1998 41.3263 17.2439 42.2351 17.0234 43.014C16.7147 44.1391 18.1701 44.9613 19.008 44.1391L29.372 33.9265C26.2407 33.6236 23.6387 31.0704 23.5505 28.0413C23.5064 26.3536 24.1238 24.7957 25.3146 23.5841C26.4612 22.4157 27.9607 21.7666 29.5925 21.7233C29.6366 21.7233 29.7248 21.7233 29.7689 21.7233H35.855C35.2375 16.3141 30.4745 12.0733 24.7413 12.1165ZM18.7875 21.1608C18.2142 22.6753 17.0675 23.6274 16.2296 23.3244C15.3916 23.0215 15.127 21.5502 15.7003 20.0356C16.2737 18.5211 17.4203 17.569 18.2583 17.8719C19.0962 18.1749 19.3608 19.6462 18.7875 21.1608ZM24.609 21.1608C24.0356 22.6753 22.889 23.6274 22.051 23.3244C21.2131 23.0215 20.9485 21.5502 21.5218 20.0356C22.0951 18.5211 23.2418 17.569 24.0797 17.8719C24.9177 18.1749 25.1823 19.6462 24.609 21.1608Z" fill="white"/>
</g>
<defs>
<clipPath id="clip0">
<rect width="166" height="46" fill="white"/>
</clipPath>
</defs>
</svg>
